<svg xmlns="http://www.w3.org/2000/svg" xmlns:xlink="http://www.w3.org/1999/xlink" version="1.1" width="256" height="256" viewBox="0 0 256 256" xml:space="preserve">

<defs>
</defs>
<g style="stroke: none; stroke-width: 0; stroke-dasharray: none; stroke-linecap: butt; stroke-linejoin: miter; stroke-miterlimit: 10; fill: none; fill-rule: nonzero; opacity: 1;" transform="translate(1.4065934065934016 1.4065934065934016) scale(2.81 2.81)" >
	<path d="M 45 90 c -8.966 0 -17.609 -2.628 -25.03 -7.606 L 1.353 89.421 c -0.367 0.138 -0.782 0.05 -1.06 -0.228 c -0.278 -0.278 -0.368 -0.692 -0.229 -1.06 l 7.077 -18.815 C 2.467 62.058 0 53.661 0 45 C 0 20.187 20.187 0 45 0 c 24.813 0 45 20.187 45 45 C 90 69.813 69.813 90 45 90 z M 20.103 80.274 c 0.2 0 0.397 0.06 0.566 0.176 C 27.851 85.39 36.265 88 45 88 c 23.71 0 43 -19.29 43 -43 C 88 21.29 68.71 2 45 2 C 21.29 2 2 21.29 2 45 c 0 8.439 2.452 16.616 7.089 23.646 c 0.177 0.268 0.214 0.604 0.102 0.902 L 2.714 86.77 l 17.036 -6.431 C 19.864 80.296 19.983 80.274 20.103 80.274 z" style="stroke: none; stroke-width: 1; stroke-dasharray: none; stroke-linecap: butt; stroke-linejoin: miter; stroke-miterlimit: 10; fill: rgb(255,254,254); fill-rule: nonzero; opacity: 1;" transform=" matrix(1 0 0 1 0 0) " stroke-linecap="round" />
	<path d="M 20.364 57.153 c -0.302 0 -0.599 -0.137 -0.793 -0.391 c -0.301 -0.392 -0.271 -0.943 0.07 -1.3 l 21.307 -22.307 c 0.184 -0.192 0.437 -0.304 0.704 -0.309 c 0.26 -0.008 0.524 0.096 0.715 0.281 l 9.808 9.491 l 17.008 -8.665 c 0.433 -0.219 0.956 -0.099 1.25 0.285 c 0.293 0.385 0.269 0.924 -0.058 1.281 L 50.898 56.828 c -0.181 0.197 -0.433 0.314 -0.7 0.324 c -0.271 0.023 -0.528 -0.087 -0.723 -0.271 l -10.457 -9.823 L 20.845 57.03 C 20.693 57.113 20.528 57.153 20.364 57.153 z M 39.173 44.833 c 0.249 0 0.495 0.093 0.685 0.271 l 10.248 9.627 l 15.074 -16.493 l -12.735 6.488 c -0.381 0.194 -0.843 0.124 -1.149 -0.172 l -9.597 -9.288 l -16.14 16.896 l 13.134 -7.206 C 38.844 44.873 39.009 44.833 39.173 44.833 z" style="stroke: none; stroke-width: 1; stroke-dasharray: none; stroke-linecap: butt; stroke-linejoin: miter; stroke-miterlimit: 10; fill: rgb(255,254,254); fill-rule: nonzero; opacity: 1;" transform=" matrix(1 0 0 1 0 0) " stroke-linecap="round" />
</g>
</svg>